<mxfile host="65bd71144e">
    <diagram id="Crw3VI83UsfA19vcPlM7" name="Page-1">
        <mxGraphModel dx="2114" dy="506" grid="1" gridSize="10" guides="1" tooltips="1" connect="1" arrows="1" fold="1" page="1" pageScale="1" pageWidth="850" pageHeight="1100" math="0" shadow="0">
            <root>
                <mxCell id="0"/>
                <mxCell id="1" parent="0"/>
                <mxCell id="7" value="" style="edgeStyle=none;html=1;" parent="1" source="2" target="4" edge="1">
                    <mxGeometry relative="1" as="geometry"/>
                </mxCell>
                <mxCell id="2" value="Magazine&lt;br&gt;many to many with Author&lt;br&gt;self.article()&lt;br&gt;self.author()" style="whiteSpace=wrap;html=1;" parent="1" vertex="1">
                    <mxGeometry x="-420" y="210" width="190" height="120" as="geometry"/>
                </mxCell>
                <mxCell id="6" style="edgeStyle=none;html=1;entryX=0.152;entryY=1.033;entryDx=0;entryDy=0;entryPerimeter=0;" parent="1" source="3" target="4" edge="1">
                    <mxGeometry relative="1" as="geometry"/>
                </mxCell>
                <mxCell id="3" value="Author&lt;br&gt;many to many with Magazine&lt;br&gt;self.article()&lt;br&gt;self.magazine()" style="whiteSpace=wrap;html=1;" parent="1" vertex="1">
                    <mxGeometry x="-820" y="210" width="190" height="120" as="geometry"/>
                </mxCell>
                <mxCell id="4" value="Article&lt;br&gt;self.author()&lt;br&gt;self.magazine()" style="whiteSpace=wrap;html=1;" parent="1" vertex="1">
                    <mxGeometry x="-650" y="10" width="250" height="90" as="geometry"/>
                </mxCell>
                <mxCell id="8" value="Article belongs to both author &lt;br&gt;and magazine&lt;br&gt;&lt;br&gt;one Article can have one Author &lt;br&gt;and each Article is unique&lt;br&gt;&lt;br&gt;one Article can have one Magazine" style="text;html=1;align=center;verticalAlign=middle;resizable=0;points=[];autosize=1;strokeColor=none;fillColor=none;" parent="1" vertex="1">
                    <mxGeometry x="-630" y="145" width="210" height="110" as="geometry"/>
                </mxCell>
                <mxCell id="9" value="list of Article" style="text;html=1;align=center;verticalAlign=middle;resizable=0;points=[];autosize=1;strokeColor=none;fillColor=none;" parent="1" vertex="1">
                    <mxGeometry x="-800" y="115" width="90" height="30" as="geometry"/>
                </mxCell>
                <mxCell id="10" value="list of Article&lt;br&gt;will create class.all" style="text;html=1;align=center;verticalAlign=middle;resizable=0;points=[];autosize=1;strokeColor=none;fillColor=none;" parent="1" vertex="1">
                    <mxGeometry x="-400" y="110" width="120" height="40" as="geometry"/>
                </mxCell>
                <mxCell id="11" value="create class.all" style="text;html=1;align=center;verticalAlign=middle;resizable=0;points=[];autosize=1;strokeColor=none;fillColor=none;" parent="1" vertex="1">
                    <mxGeometry x="-805" y="130" width="100" height="30" as="geometry"/>
                </mxCell>
            </root>
        </mxGraphModel>
    </diagram>
</mxfile>